<?xml version="1.0" encoding="UTF-8" standalone="no"?>
<!-- Created with Inkscape (http://www.inkscape.org/) -->

<svg
   xmlns:dc="http://purl.org/dc/elements/1.1/"
   xmlns:cc="http://creativecommons.org/ns#"
   xmlns:rdf="http://www.w3.org/1999/02/22-rdf-syntax-ns#"
   xmlns:svg="http://www.w3.org/2000/svg"
   xmlns="http://www.w3.org/2000/svg"
   xmlns:sodipodi="http://sodipodi.sourceforge.net/DTD/sodipodi-0.dtd"
   xmlns:inkscape="http://www.inkscape.org/namespaces/inkscape"
   width="77.359604mm"
   height="76.915337mm"
   viewBox="0 0 274.10883 272.53466"
   id="svg3429"
   version="1.1"
   inkscape:version="0.91 r13725"
   sodipodi:docname="logo.svg">
  <defs
     id="defs3431" />
  <sodipodi:namedview
     id="base"
     pagecolor="#ffffff"
     bordercolor="#666666"
     borderopacity="1.0"
     inkscape:pageopacity="0.0"
     inkscape:pageshadow="2"
     inkscape:zoom="0.7"
     inkscape:cx="359.17058"
     inkscape:cy="-209.10177"
     inkscape:document-units="px"
     inkscape:current-layer="layer1"
     showgrid="false"
     inkscape:window-width="1920"
     inkscape:window-height="1027"
     inkscape:window-x="-8"
     inkscape:window-y="-8"
     inkscape:window-maximized="1"
     fit-margin-top="0"
     fit-margin-left="0"
     fit-margin-right="0"
     fit-margin-bottom="0" />
  <metadata
     id="metadata3434">
    <rdf:RDF>
      <cc:Work
         rdf:about="">
        <dc:format>image/svg+xml</dc:format>
        <dc:type
           rdf:resource="http://purl.org/dc/dcmitype/StillImage" />
        <dc:title></dc:title>
      </cc:Work>
    </rdf:RDF>
  </metadata>
  <g
     inkscape:label="Layer 1"
     inkscape:groupmode="layer"
     id="layer1"
     transform="translate(-1.4285714,0.17245315)">
    <path
       style="fill:#000000;stroke:none;stroke-opacity:1"
       d="M 193.08408,9.1290396 C 228.52207,24.46574 256.57242,54.82707 268.80913,91.09282 c 9.16315,30.68955 8.85663,62.78817 -0.24573,89.19028 -6.50197,18.67969 -16.7728,35.49406 -30.36701,49.7139 -20.26214,21.1945 -44.99816,34.6969 -73.99225,40.3894 -9.43455,1.8522 -34.16944,2.6187 -43.59375,1.3507 l 0,0 c -15.22105,-2.0478 -40.001644,-10.0846 -40.581644,-13.1614 -0.23348,-1.2385 1.06886,-1.6042 7.49327,-2.1041 27.552494,-2.1438 54.539314,-14.9598 75.275874,-35.7483 18.2094,-18.25493 29.49416,-39.99428 34.32106,-66.11717 1.68189,-9.1023 1.44266,-30.79654 -0.4471,-40.54463 C 191.79251,88.89208 180.65653,67.83563 162.83172,50.07488 148.38565,35.68075 132.34758,25.71331 114.04789,19.75643 c -9.12857,-2.97152 -23.724434,-5.7753 -30.064904,-5.7753 -6.14881,0 -5.98878,-2.16395 0.36629,-4.9527804 13.51683,-5.93166 25.002624,-8.14166001 38.294874,-8.72627001 13.29225,-0.58461 19.08949,-0.75263 30.12168,0.2166 11.03219,0.96923001 27.05333,2.94247001 40.31825,8.61036001 z M 54.877706,244.7649 C 29.329406,225.5136 10.449946,195.58941 3.2879859,162.99438 0.00834593,139.6017 0.90185591,112.97158 7.2930159,92.78046 10.711906,82.09243 20.941546,62.32115 27.715316,53.30939 c 6.83688,-9.09572 21.92931,-23.95781 29.81765,-29.36257 l 5.29527,-3.6281 13.42233,0.0329 c 45.120494,0.11074 83.918244,23.98216 103.923694,63.94201 5.61945,11.22456 9.41369,31.61917 9.73497,37.28702 0.32128,5.66784 0.32174,4.66507 0.0469,11.17158 -0.41936,-3.99001 -1.04978,-9.37115 -2.57302,-12.8336 -5.85145,-17.10043 -19.20409,-29.67991 -36.34643,-34.24187 -5.93421,-1.57922 -18.24246,-1.76636 -24.33249,-0.36996 -8.31607,1.90681 -17.73817,7.28361 -24.27079,13.85029 -10.303824,10.35756 -15.204994,21.98128 -15.244494,36.15414 -0.0395,14.15449 4.89249,25.90044 15.244494,36.30644 9.78181,9.83283 22.0703,14.86346 36.30746,14.86346 21.96356,0 42.12934,-15.00483 48.99031,-36.45239 1.76037,-6.25073 1.81247,-8.29757 2.14016,-12.31304 0.2017,7.37925 0.26693,4.594 0.10113,11.0049 -0.13862,3.75551 -4.20687,26.63185 -9.82205,37.76053 -15.35957,30.44098 -41.51132,51.58367 -75.00867,60.64167 -7.515274,2.0322 -11.546594,2.4802 -25.812014,2.8683 l -16.90576,0.4599 -7.54616,-5.6862 z"
       id="path4272"
       inkscape:connector-curvature="0"
       sodipodi:nodetypes="cccssccssssssssszzccccscssczccsssssscccsscccc" />
  </g>
</svg>
